<svg width="26" height="24" viewBox="0 0 26 24" fill="none" xmlns="http://www.w3.org/2000/svg">
<path d="M10.5 21.625C10.5 21.9711 10.3974 22.3095 10.2051 22.5972C10.0128 22.885 9.73947 23.1093 9.4197 23.2418C9.09993 23.3742 8.74806 23.4089 8.40859 23.3414C8.06913 23.2738 7.75731 23.1072 7.51256 22.8624C7.26782 22.6177 7.10115 22.3059 7.03363 21.9664C6.9661 21.6269 7.00076 21.2751 7.13321 20.9553C7.26566 20.6355 7.48997 20.3622 7.77775 20.1699C8.06554 19.9776 8.40388 19.875 8.75 19.875C9.21413 19.875 9.65925 20.0594 9.98744 20.3876C10.3156 20.7158 10.5 21.1609 10.5 21.625ZM20.125 19.875C19.7789 19.875 19.4405 19.9776 19.1528 20.1699C18.865 20.3622 18.6407 20.6355 18.5082 20.9553C18.3758 21.2751 18.3411 21.6269 18.4086 21.9664C18.4762 22.3059 18.6428 22.6177 18.8876 22.8624C19.1323 23.1072 19.4441 23.2738 19.7836 23.3414C20.1231 23.4089 20.4749 23.3742 20.7947 23.2418C21.1145 23.1093 21.3878 22.885 21.5801 22.5972C21.7724 22.3095 21.875 21.9711 21.875 21.625C21.875 21.1609 21.6906 20.7158 21.3624 20.3876C21.0342 20.0594 20.5891 19.875 20.125 19.875ZM25.3367 6.13203L22.2162 16.2722C22.0528 16.8097 21.7205 17.2803 21.2685 17.614C20.8165 17.9478 20.269 18.127 19.7072 18.125H9.19516C8.62528 18.1229 8.07144 17.9362 7.61656 17.5929C7.16167 17.2496 6.83024 16.7682 6.67188 16.2208L2.71469 2.375H0.875C0.642936 2.375 0.420376 2.28281 0.256282 2.11872C0.0921872 1.95462 0 1.73206 0 1.5C0 1.26794 0.0921872 1.04538 0.256282 0.881282C0.420376 0.717187 0.642936 0.625 0.875 0.625H2.71469C3.09467 0.62626 3.46402 0.750549 3.76746 0.979263C4.0709 1.20798 4.29211 1.52881 4.39797 1.89375L5.285 5H24.5C24.6369 4.99995 24.772 5.03204 24.8942 5.09368C25.0165 5.15532 25.1226 5.24479 25.204 5.35491C25.2854 5.46502 25.3398 5.5927 25.3628 5.72767C25.3859 5.86265 25.3769 6.00114 25.3367 6.13203ZM23.3155 6.75H5.78484L8.35406 15.7406C8.40633 15.9234 8.51669 16.0841 8.66844 16.1986C8.82019 16.313 9.00508 16.375 9.19516 16.375H19.7072C19.8944 16.3751 20.0767 16.3151 20.2273 16.2038C20.378 16.0926 20.4889 15.936 20.5439 15.757L23.3155 6.75Z" fill="#333333"/>
</svg>
