<svg width="24" height="24" viewBox="0 0 24 24" fill="none" xmlns="http://www.w3.org/2000/svg">
<path d="M12.75 8.475V10.65H14.7C14.85 10.65 14.925 10.8 14.925 10.95L14.625 12.375C14.625 12.45 14.475 12.525 14.4 12.525H12.75V18H10.5V12.6H9.225C9.075 12.6 9 12.525 9 12.375V10.95C9 10.8 9.075 10.725 9.225 10.725H10.5V8.25C10.5 6.975 11.475 6 12.75 6H14.775C14.925 6 15 6.075 15 6.225V8.025C15 8.175 14.925 8.25 14.775 8.25H12.975C12.825 8.25 12.75 8.325 12.75 8.475Z" stroke="#888888" stroke-width="1.5" stroke-miterlimit="10" stroke-linecap="round"/>
<path d="M15 22H9C4 22 2 20 2 15V9C2 4 4 2 9 2H15C20 2 22 4 22 9V15C22 20 20 22 15 22Z" stroke="#888888" stroke-width="1.5" stroke-linecap="round" stroke-linejoin="round"/>
</svg>
