<svg width="25" height="24" viewBox="0 0 25 24" fill="none" xmlns="http://www.w3.org/2000/svg">
<path d="M22.0992 10.2H12.6992V13.9H18.1992C18.0992 14.8 17.4992 16.2 16.1992 17.1C15.3992 17.7 14.1992 18.1 12.6992 18.1C10.0992 18.1 7.79922 16.4 6.99922 13.9C6.79922 13.3 6.69922 12.6 6.69922 11.9C6.69922 11.2 6.79922 10.5 6.99922 9.9C7.09922 9.7 7.09922 9.5 7.19922 9.4C8.09922 7.3 10.1992 5.8 12.6992 5.8C14.5992 5.8 15.7992 6.6 16.5992 7.3L19.3992 4.5C17.6992 3 15.3992 2 12.6992 2C8.79922 2 5.39922 4.2 3.79922 7.5C3.09922 8.9 2.69922 10.4 2.69922 12C2.69922 13.6 3.09922 15.1 3.79922 16.5C5.39922 19.8 8.79922 22 12.6992 22C15.3992 22 17.6992 21.1 19.2992 19.6C21.1992 17.9 22.2992 15.3 22.2992 12.2C22.2992 11.4 22.1992 10.8 22.0992 10.2Z" stroke="#3A3A3A" stroke-width="1.5" stroke-miterlimit="10" stroke-linecap="round" stroke-linejoin="round"/>
</svg>
