<svg width="22" height="22" viewBox="0 0 22 22" fill="none" xmlns="http://www.w3.org/2000/svg">
<path d="M4.10156 10.7001L2.59273 12.2089C2.50896 12.2927 2.46701 12.3346 2.42757 12.376C1.60365 13.2402 1.13136 14.3804 1.10292 15.574C1.10156 15.6311 1.10156 15.6904 1.10156 15.8089C1.10156 16.0793 1.10156 16.2145 1.10701 16.3287C1.22483 18.8 3.20171 20.7768 5.67297 20.8946C5.7872 20.9001 5.92238 20.9001 6.19273 20.9001C6.31125 20.9001 6.37051 20.9001 6.42767 20.8987C7.62131 20.8703 8.7615 20.398 9.62564 19.5741C9.667 19.5347 9.709 19.4927 9.79273 19.4089L12.5016 16.7001C12.6927 16.509 12.7883 16.4133 12.8652 16.3287C14.5294 14.498 14.5294 11.7022 12.8652 9.87148C12.7883 9.78686 12.6927 9.69121 12.5016 9.5001L12.2016 9.2001M17.9016 11.3001L19.4104 9.79127C19.4942 9.70749 19.5361 9.66555 19.5756 9.62418C20.3995 8.76004 20.8718 7.61984 20.9002 6.4262C20.9016 6.36905 20.9016 6.30979 20.9016 6.19127C20.9016 5.92091 20.9016 5.78573 20.8961 5.6715C20.7783 3.20024 18.8014 1.22337 16.3302 1.10554C16.2159 1.1001 16.0807 1.1001 15.8104 1.1001C15.6919 1.1001 15.6326 1.1001 15.5755 1.10146C14.3818 1.1299 13.2416 1.60218 12.3775 2.4261C12.3361 2.46554 12.2941 2.50754 12.2104 2.59127L9.50156 5.3001C9.31042 5.49124 9.2148 5.58686 9.13788 5.67148C7.47375 7.50224 7.47375 10.298 9.13788 12.1287C9.2148 12.2133 9.31045 12.309 9.50156 12.5001L9.80156 12.8001" stroke="#666666" stroke-width="1.5" stroke-linecap="round" stroke-linejoin="round"/>
</svg>
