<svg width="140" height="30" viewBox="0 0 140 30" fill="none" xmlns="http://www.w3.org/2000/svg">
<path d="M17.8376 1.39874C19.4325 2.33225 20.6929 3.64281 21.6157 5.33043C22.5386 7.02108 23 8.9854 23 11.2295C23 13.4735 22.5386 15.4409 21.6157 17.1285C20.6929 18.8192 19.4325 20.1297 17.8376 21.0602C16.2397 21.9937 14.4652 22.4589 12.5111 22.4589C9.81379 22.4589 7.69247 21.5802 6.15336 19.8226V30H0V0.32536H5.86226V2.84006C7.3766 0.945672 9.59391 0 12.5111 0C14.4652 0 16.2397 0.465234 17.8376 1.39874ZM15.2982 15.6294C16.3016 14.5348 16.8064 13.0691 16.8064 11.2295C16.8064 9.38982 16.3047 7.92418 15.2982 6.82951C14.2918 5.73485 13.0066 5.18751 11.4365 5.18751C9.86643 5.18751 8.58126 5.73485 7.57479 6.82951C6.56833 7.92418 6.06665 9.38982 6.06665 11.2295C6.06665 13.0691 6.56833 14.5348 7.57479 15.6294C8.57816 16.7241 9.86643 17.2714 11.4365 17.2714C13.0066 17.2714 14.2918 16.7241 15.2982 15.6294Z" fill="#FF6F20"/>
<path d="M42.3858 2.4694C44.1265 4.11671 45 6.60168 45 9.9212V22.6668H39.2809V19.886C38.1019 21.963 35.9599 23 32.8611 23C31.2407 23 29.8426 22.7104 28.6636 22.1281C27.4846 21.5458 26.5772 20.7455 25.9475 19.721C25.3148 18.6965 25 17.5349 25 16.2333C25 14.1562 25.7407 12.5245 27.2222 11.335C28.7037 10.1454 30.9815 9.55064 34.0525 9.55064H38.8673C38.8673 8.55416 38.7037 7.77877 38.3735 7.22448C37.6327 5.84186 36.1914 5.14744 34.0525 5.14744C32.9259 5.14744 31.8241 5.33428 30.7407 5.70796C29.6574 6.08164 28.7315 6.58611 27.963 7.22448L25.7809 2.69984C26.9043 1.84349 28.2778 1.17709 29.8951 0.706878C31.5123 0.236664 33.1728 0 34.8735 0C38.1389 0 40.642 0.82521 42.3827 2.4694H42.3858ZM37.1821 17.8744C37.9784 17.3637 38.5401 16.607 38.8704 15.6105V13.3279H34.713C32.2161 13.3279 30.9691 14.1998 30.9691 15.9437C30.9691 16.7751 31.2716 17.4322 31.8735 17.9148C32.4753 18.4006 33.3148 18.6404 34.3827 18.6404C35.4506 18.6404 36.3858 18.3851 37.1821 17.8712V17.8744Z" fill="#FF6F20"/>
<path d="M52.6384 21.5329C50.8672 20.5517 49.4852 19.1874 48.4923 17.4431C47.4964 15.6988 47 13.7209 47 11.5031C47 9.28535 47.4964 7.30742 48.4923 5.56311C49.4852 3.8188 50.8672 2.4545 52.6384 1.47332C54.4096 0.492145 56.4106 0 58.6445 0C60.8784 0 62.7722 0.492145 64.4055 1.47332C66.0388 2.45761 67.237 3.86241 68 5.6877L63.3023 8.38827C62.239 6.33871 60.6731 5.31392 58.6047 5.31392C57.0235 5.31392 55.7242 5.86836 54.7038 6.97413C53.6834 8.08302 53.1716 9.5906 53.1716 11.5C53.1716 13.4094 53.6834 14.9201 54.7038 16.0259C55.7242 17.1348 57.0266 17.6861 58.6047 17.6861C60.7007 17.6861 62.2666 16.6613 63.3023 14.6117L68 17.3528C67.237 19.1532 66.0388 20.5455 64.4055 21.5267C62.7722 22.511 60.8509 23 58.6445 23C56.4382 23 54.4096 22.5079 52.6384 21.5267V21.5329Z" fill="#FF6F20"/>
<path d="M91.8776 13.3279H76.1222C76.4221 14.7136 77.0956 15.8067 78.1425 16.607C79.1894 17.4104 80.5026 17.8121 82.0821 17.8121C83.1688 17.8121 84.13 17.6408 84.9595 17.292C85.7891 16.9464 86.5727 16.3983 87.3074 15.651L90.5307 19.3878C88.544 21.7949 85.6727 23 81.9198 23C79.5536 23 77.4629 22.508 75.6538 21.5271C73.8447 20.5462 72.4489 19.1822 71.4693 17.4384C70.4898 15.6946 70 13.7172 70 11.5C70 9.28283 70.4836 7.34281 71.4479 5.5834C72.4121 3.82711 73.7468 2.45695 75.4487 1.47292C77.1476 0.492012 79.0455 0 81.1423 0C83.2392 0 85.0268 0.470214 86.6737 1.41064C88.3206 2.35107 89.6185 3.70255 90.5705 5.45884C91.5225 7.21825 92 9.25792 92 11.5841C92 11.6682 91.9602 12.2474 91.8776 13.3279ZM77.7354 6.14392C76.7956 6.97536 76.2324 8.10885 76.0426 9.54752H86.288C86.0707 8.13688 85.5044 7.00961 84.5952 6.1626C83.683 5.31871 82.5474 4.89521 81.1883 4.89521C79.8291 4.89521 78.6782 5.30937 77.7384 6.14081L77.7354 6.14392Z" fill="#FF6F20"/>
<path d="M115 21.6766H109.313V19.0989C108.527 20.0387 107.58 20.758 106.471 21.2536C105.359 21.7492 104.156 22 102.855 22C100.147 22 97.9935 21.181 96.3973 19.5431C94.7981 17.9052 94 15.4725 94 12.2511V0H100.01V11.3234C100.01 14.8168 101.405 16.5604 104.192 16.5604C105.654 16.5604 106.818 16.0709 107.686 15.0887C108.551 14.1096 108.987 12.65 108.987 10.7159V0H114.997V21.6766H115Z" fill="#FF6F20"/>
<path d="M134.838 1.39584C136.432 2.32945 137.693 3.64014 138.616 5.32793C139.539 7.01875 140 8.98328 140 11.2276C140 13.4719 139.539 15.4394 138.616 17.1272C137.693 18.818 136.432 20.1287 134.838 21.0593C133.24 21.9929 131.465 22.4582 129.511 22.4582C126.814 22.4582 124.692 21.5793 123.153 19.8216V30H117V0.322352H122.862V2.8373C124.377 0.945768 126.591 0 129.511 0C131.465 0 133.24 0.465281 134.838 1.39889V1.39584ZM132.298 15.628C133.302 14.5332 133.806 13.0674 133.806 11.2276C133.806 9.38774 133.305 7.92195 132.298 6.82717C131.292 5.73239 130.007 5.185 128.437 5.185C126.866 5.185 125.581 5.73239 124.575 6.82717C123.568 7.92195 123.067 9.38774 123.067 11.2276C123.067 13.0674 123.568 14.5332 124.575 15.628C125.578 16.7228 126.866 17.2701 128.437 17.2701C130.007 17.2701 131.292 16.7228 132.298 15.628Z" fill="#FF6F20"/>
</svg>
