<svg width="20" height="20" viewBox="0 0 20 20" fill="none" xmlns="http://www.w3.org/2000/svg">
<path d="M2 1.74414C1.58579 1.74414 1.25 2.07993 1.25 2.49414C1.25 2.90835 1.58579 3.24414 2 3.24414V1.74414ZM3.91045 2.49414L4.63437 2.29808C4.54582 1.97115 4.24915 1.74414 3.91045 1.74414V2.49414ZM7.01492 13.9568L6.291 14.1529C6.38871 14.5136 6.7371 14.7474 7.10795 14.701L7.01492 13.9568ZM16.5672 12.7628L16.6602 13.507C16.9787 13.4672 17.2366 13.2291 17.3016 12.9148L16.5672 12.7628ZM18 5.83743L18.7344 5.98938C18.7801 5.76849 18.724 5.53877 18.5816 5.36386C18.4391 5.18895 18.2256 5.08743 18 5.08743V5.83743ZM4.81592 5.83743L4.092 6.03349L4.81592 5.83743ZM2 3.24414H3.91045V1.74414H2V3.24414ZM7.10795 14.701L16.6602 13.507L16.4741 12.0186L6.9219 13.2126L7.10795 14.701ZM17.3016 12.9148L18.7344 5.98938L17.2656 5.68547L15.8327 12.6108L17.3016 12.9148ZM3.18653 2.6902L4.092 6.03349L5.53984 5.64136L4.63437 2.29808L3.18653 2.6902ZM4.092 6.03349L6.291 14.1529L7.73884 13.7608L5.53984 5.64136L4.092 6.03349ZM18 5.08743H4.81592V6.58743H18V5.08743ZM9.25 17.0835C9.25 17.3597 9.02614 17.5835 8.75 17.5835V19.0835C9.85457 19.0835 10.75 18.1881 10.75 17.0835H9.25ZM8.75 17.5835C8.47386 17.5835 8.25 17.3597 8.25 17.0835H6.75C6.75 18.1881 7.64543 19.0835 8.75 19.0835V17.5835ZM8.25 17.0835C8.25 16.8074 8.47386 16.5835 8.75 16.5835V15.0835C7.64543 15.0835 6.75 15.979 6.75 17.0835H8.25ZM8.75 16.5835C9.02614 16.5835 9.25 16.8074 9.25 17.0835H10.75C10.75 15.979 9.85457 15.0835 8.75 15.0835V16.5835ZM15.9167 17.0835C15.9167 17.3597 15.6928 17.5835 15.4167 17.5835V19.0835C16.5212 19.0835 17.4167 18.1881 17.4167 17.0835H15.9167ZM15.4167 17.5835C15.1405 17.5835 14.9167 17.3597 14.9167 17.0835H13.4167C13.4167 18.1881 14.3121 19.0835 15.4167 19.0835V17.5835ZM14.9167 17.0835C14.9167 16.8074 15.1405 16.5835 15.4167 16.5835V15.0835C14.3121 15.0835 13.4167 15.979 13.4167 17.0835H14.9167ZM15.4167 16.5835C15.6928 16.5835 15.9167 16.8074 15.9167 17.0835H17.4167C17.4167 15.979 16.5212 15.0835 15.4167 15.0835V16.5835Z" fill="#E86642"/>
</svg>
