<svg width="20" height="22" viewBox="0 0 20 22" fill="none" xmlns="http://www.w3.org/2000/svg">
<path d="M13.7028 6.04534L5.21722 14.4415C4.49623 15.1549 4.49622 16.3115 5.21722 17.0249C5.93822 17.7383 7.10719 17.7383 7.82818 17.0249L17.6193 7.33706C19.0613 5.91027 19.0613 3.59698 17.6193 2.17019C16.1773 0.7434 13.8394 0.7434 12.3974 2.17019L2.92302 11.5447C2.83185 11.6349 2.78627 11.68 2.74334 11.7245C1.847 12.6547 1.3332 13.882 1.30226 15.1669C1.30078 15.2284 1.30078 15.2922 1.30078 15.4198C1.30078 15.7108 1.30078 15.8563 1.30671 15.9793C1.43489 18.6394 3.58553 20.7674 6.27401 20.8942C6.39829 20.9001 6.54535 20.9001 6.83947 20.9001C6.9684 20.9001 7.03287 20.9001 7.09505 20.8986C8.39361 20.868 9.63403 20.3596 10.5741 19.4727C10.6191 19.4303 10.6647 19.3852 10.7559 19.295L17.6193 12.5039" stroke="#666666" stroke-width="1.5" stroke-linecap="round" stroke-linejoin="round"/>
</svg>
